<svg width="159" height="48" viewBox="0 0 159 48" fill="none" xmlns="http://www.w3.org/2000/svg">
<path d="M19.3821 41.1824L19.0744 25.739C19.0744 25.739 15.9979 25.739 12.6137 23.3165C9.22956 20.894 7.01375 18.223 6.46069 13.3237C6.15304 10.5984 6.46069 7.26745 8.92191 3.02808C7.40806 4.21864 5.7526 4.81392 3.33045 9.87382C0.874123 15.9256 0.163725 18.9807 0 25.9464C0.203005 35.0166 1.61145 38.6919 5.44983 43.8049C8.78029 47.3766 10.2355 48.4396 15.3826 47.8443C17.1992 47.249 19.3821 44.8162 19.3821 41.1824Z" fill="white"/>
<path d="M23.0739 38.4572L22.7662 25.7391C22.7662 25.7391 26.4581 25.4363 29.2269 23.3166C31.9958 21.1969 34.457 18.6816 35.38 13.6266C35.9068 10.7412 35.6736 4.84508 30.4575 0.605713C34.457 2.7254 36.811 6.05633 37.5872 7.7481C38.6172 9.99289 39.831 11.8097 39.9947 19.0773C40.0698 22.4082 39.3794 30.8869 35.38 40.2741C33.1794 45.439 29.2269 48.45 26.1504 46.936C24.3338 46.3149 23.0739 42.9994 23.0739 38.4572Z" fill="white"/>
<ellipse cx="20.9203" cy="11.5069" rx="11.6908" ry="11.5069" fill="white"/>
<path d="M48.768 9.9C48.768 8.80133 49.008 7.82 49.488 6.956C49.968 6.08133 50.624 5.404 51.456 4.924C52.288 4.43333 53.216 4.188 54.24 4.188C55.488 4.188 56.5547 4.48667 57.44 5.084C58.336 5.67067 58.9867 6.50267 59.392 7.58H58.08C57.76 6.82267 57.2693 6.23067 56.608 5.804C55.9573 5.37733 55.168 5.164 54.24 5.164C53.4187 5.164 52.6773 5.356 52.016 5.74C51.3653 6.124 50.8533 6.67867 50.48 7.404C50.1067 8.11867 49.92 8.95067 49.92 9.9C49.92 10.8493 50.1067 11.6813 50.48 12.396C50.8533 13.1107 51.3653 13.66 52.016 14.044C52.6773 14.428 53.4187 14.62 54.24 14.62C55.168 14.62 55.9573 14.412 56.608 13.996C57.2693 13.5693 57.76 12.9827 58.08 12.236H59.392C58.9867 13.3027 58.336 14.1293 57.44 14.716C56.544 15.3027 55.4773 15.596 54.24 15.596C53.216 15.596 52.288 15.356 51.456 14.876C50.624 14.3853 49.968 13.708 49.488 12.844C49.008 11.98 48.768 10.9987 48.768 9.9ZM61.1118 11.116C61.1118 10.22 61.2878 9.436 61.6398 8.764C62.0024 8.08133 62.4984 7.55867 63.1278 7.196C63.7678 6.82267 64.4878 6.636 65.2878 6.636C66.1198 6.636 66.8344 6.828 67.4318 7.212C68.0398 7.596 68.4771 8.08667 68.7438 8.684V6.764H69.8638V15.5H68.7438V13.564C68.4664 14.1613 68.0238 14.6573 67.4158 15.052C66.8184 15.436 66.1038 15.628 65.2718 15.628C64.4824 15.628 63.7678 15.4413 63.1278 15.068C62.4984 14.6947 62.0024 14.1667 61.6398 13.484C61.2878 12.8013 61.1118 12.012 61.1118 11.116ZM68.7438 11.132C68.7438 10.428 68.5998 9.80933 68.3118 9.276C68.0238 8.74267 67.6291 8.332 67.1278 8.044C66.6371 7.756 66.0931 7.612 65.4958 7.612C64.8771 7.612 64.3224 7.75067 63.8318 8.028C63.3411 8.30533 62.9518 8.71067 62.6638 9.244C62.3864 9.76667 62.2478 10.3907 62.2478 11.116C62.2478 11.8307 62.3864 12.46 62.6638 13.004C62.9518 13.5373 63.3411 13.948 63.8318 14.236C64.3224 14.5133 64.8771 14.652 65.4958 14.652C66.0931 14.652 66.6371 14.508 67.1278 14.22C67.6291 13.932 68.0238 13.5213 68.3118 12.988C68.5998 12.4547 68.7438 11.836 68.7438 11.132ZM76.5166 6.604C77.562 6.604 78.4153 6.92933 79.0766 7.58C79.738 8.22 80.0686 9.15333 80.0686 10.38V15.5H78.9646V10.508C78.9646 9.55867 78.7246 8.83333 78.2446 8.332C77.7753 7.83067 77.13 7.58 76.3086 7.58C75.466 7.58 74.794 7.84667 74.2926 8.38C73.7913 8.91333 73.5406 9.69733 73.5406 10.732V15.5H72.4206V6.764H73.5406V8.252C73.818 7.71867 74.218 7.31333 74.7406 7.036C75.2633 6.748 75.8553 6.604 76.5166 6.604ZM90.4496 10.684C90.4496 11.068 90.439 11.3613 90.4176 11.564H83.1696C83.2016 12.2253 83.3616 12.7907 83.6496 13.26C83.9376 13.7293 84.3163 14.0867 84.7856 14.332C85.255 14.5667 85.767 14.684 86.3216 14.684C87.047 14.684 87.655 14.508 88.1456 14.156C88.647 13.804 88.9776 13.3293 89.1376 12.732H90.3216C90.1083 13.5853 89.6496 14.284 88.9456 14.828C88.2523 15.3613 87.3776 15.628 86.3216 15.628C85.5003 15.628 84.7643 15.4467 84.1136 15.084C83.463 14.7107 82.951 14.188 82.5776 13.516C82.215 12.8333 82.0336 12.0387 82.0336 11.132C82.0336 10.2253 82.215 9.43067 82.5776 8.748C82.9403 8.06533 83.447 7.54267 84.0976 7.18C84.7483 6.81733 85.4896 6.636 86.3216 6.636C87.1536 6.636 87.879 6.81733 88.4976 7.18C89.127 7.54267 89.607 8.03333 89.9376 8.652C90.279 9.26 90.4496 9.93733 90.4496 10.684ZM89.3136 10.652C89.3243 10.0013 89.191 9.44667 88.9136 8.988C88.647 8.52933 88.279 8.18267 87.8096 7.948C87.3403 7.71333 86.8283 7.596 86.2736 7.596C85.4416 7.596 84.7323 7.86267 84.1456 8.396C83.559 8.92933 83.2336 9.68133 83.1696 10.652H89.3136ZM93.6188 3.66V15.5H92.4988V3.66H93.6188ZM99.979 15.628C99.1577 15.628 98.4163 15.4467 97.755 15.084C97.1043 14.7107 96.587 14.188 96.203 13.516C95.8297 12.8333 95.643 12.0387 95.643 11.132C95.643 10.2253 95.835 9.436 96.219 8.764C96.603 8.08133 97.1257 7.55867 97.787 7.196C98.4483 6.82267 99.1897 6.636 100.011 6.636C100.832 6.636 101.574 6.82267 102.235 7.196C102.907 7.55867 103.43 8.08133 103.803 8.764C104.187 9.436 104.379 10.2253 104.379 11.132C104.379 12.028 104.187 12.8173 103.803 13.5C103.419 14.1827 102.891 14.7107 102.219 15.084C101.547 15.4467 100.8 15.628 99.979 15.628ZM99.979 14.652C100.555 14.652 101.088 14.524 101.579 14.268C102.07 14.0013 102.464 13.6067 102.763 13.084C103.072 12.5507 103.227 11.9 103.227 11.132C103.227 10.364 103.078 9.71867 102.779 9.196C102.48 8.66267 102.086 8.268 101.595 8.012C101.104 7.74533 100.571 7.612 99.995 7.612C99.419 7.612 98.8857 7.74533 98.395 8.012C97.9043 8.268 97.5097 8.66267 97.211 9.196C96.923 9.71867 96.779 10.364 96.779 11.132C96.779 11.9 96.923 12.5507 97.211 13.084C97.5097 13.6067 97.899 14.0013 98.379 14.268C98.8697 14.524 99.403 14.652 99.979 14.652ZM110.517 6.604C111.562 6.604 112.415 6.92933 113.077 7.58C113.738 8.22 114.069 9.15333 114.069 10.38V15.5H112.965V10.508C112.965 9.55867 112.725 8.83333 112.245 8.332C111.775 7.83067 111.13 7.58 110.309 7.58C109.466 7.58 108.794 7.84667 108.293 8.38C107.791 8.91333 107.541 9.69733 107.541 10.732V15.5H106.421V6.764H107.541V8.252C107.818 7.71867 108.218 7.31333 108.741 7.036C109.263 6.748 109.855 6.604 110.517 6.604ZM124.45 10.684C124.45 11.068 124.439 11.3613 124.418 11.564H117.17C117.202 12.2253 117.362 12.7907 117.65 13.26C117.938 13.7293 118.316 14.0867 118.786 14.332C119.255 14.5667 119.767 14.684 120.322 14.684C121.047 14.684 121.655 14.508 122.146 14.156C122.647 13.804 122.978 13.3293 123.138 12.732H124.322C124.108 13.5853 123.65 14.284 122.946 14.828C122.252 15.3613 121.378 15.628 120.322 15.628C119.5 15.628 118.764 15.4467 118.114 15.084C117.463 14.7107 116.951 14.188 116.578 13.516C116.215 12.8333 116.034 12.0387 116.034 11.132C116.034 10.2253 116.215 9.43067 116.578 8.748C116.94 8.06533 117.447 7.54267 118.098 7.18C118.748 6.81733 119.49 6.636 120.322 6.636C121.154 6.636 121.879 6.81733 122.498 7.18C123.127 7.54267 123.607 8.03333 123.938 8.652C124.279 9.26 124.45 9.93733 124.45 10.684ZM123.314 10.652C123.324 10.0013 123.191 9.44667 122.914 8.988C122.647 8.52933 122.279 8.18267 121.81 7.948C121.34 7.71333 120.828 7.596 120.274 7.596C119.442 7.596 118.732 7.86267 118.146 8.396C117.559 8.92933 117.234 9.68133 117.17 10.652H123.314ZM129.507 15.628C128.504 15.628 127.683 15.3987 127.043 14.94C126.413 14.4707 126.061 13.836 125.987 13.036H127.139C127.192 13.5267 127.421 13.9267 127.827 14.236C128.243 14.5347 128.797 14.684 129.491 14.684C130.099 14.684 130.573 14.54 130.915 14.252C131.267 13.964 131.443 13.6067 131.443 13.18C131.443 12.8813 131.347 12.636 131.155 12.444C130.963 12.252 130.717 12.1027 130.419 11.996C130.131 11.8787 129.736 11.756 129.235 11.628C128.584 11.4573 128.056 11.2867 127.651 11.116C127.245 10.9453 126.899 10.6947 126.611 10.364C126.333 10.0227 126.195 9.56933 126.195 9.004C126.195 8.57733 126.323 8.18267 126.579 7.82C126.835 7.45733 127.197 7.16933 127.667 6.956C128.136 6.74267 128.669 6.636 129.267 6.636C130.205 6.636 130.963 6.876 131.539 7.356C132.115 7.82533 132.424 8.476 132.467 9.308H131.347C131.315 8.796 131.112 8.38533 130.739 8.076C130.376 7.756 129.875 7.596 129.235 7.596C128.669 7.596 128.211 7.72933 127.859 7.996C127.507 8.26267 127.331 8.59333 127.331 8.988C127.331 9.32933 127.432 9.612 127.635 9.836C127.848 10.0493 128.109 10.22 128.419 10.348C128.728 10.4653 129.144 10.5987 129.667 10.748C130.296 10.9187 130.797 11.084 131.171 11.244C131.544 11.404 131.864 11.6387 132.131 11.948C132.397 12.2573 132.536 12.668 132.547 13.18C132.547 13.6493 132.419 14.0707 132.163 14.444C131.907 14.8067 131.549 15.0947 131.091 15.308C130.632 15.5213 130.104 15.628 129.507 15.628ZM71.996 23.844V43.5H67.208V31.712L62.812 43.5H58.948L54.524 31.684V43.5H49.736V23.844H55.392L60.908 37.452L66.368 23.844H71.996ZM90.8671 27.876V43.5H86.0791V41.372C85.5938 42.0627 84.9311 42.6227 84.0911 43.052C83.2698 43.4627 82.3551 43.668 81.3471 43.668C80.1525 43.668 79.0978 43.4067 78.1831 42.884C77.2685 42.3427 76.5591 41.568 76.0551 40.56C75.5511 39.552 75.2991 38.3667 75.2991 37.004V27.876H80.0591V36.36C80.0591 37.4053 80.3298 38.2173 80.8711 38.796C81.4125 39.3747 82.1405 39.664 83.0551 39.664C83.9885 39.664 84.7258 39.3747 85.2671 38.796C85.8085 38.2173 86.0791 37.4053 86.0791 36.36V27.876H90.8671ZM100.662 43.724C99.2996 43.724 98.0863 43.4907 97.0223 43.024C95.9583 42.5573 95.1183 41.9227 94.5023 41.12C93.8863 40.2987 93.541 39.384 93.4663 38.376H98.1983C98.2543 38.9173 98.5063 39.356 98.9543 39.692C99.4023 40.028 99.953 40.196 100.606 40.196C101.204 40.196 101.661 40.084 101.978 39.86C102.314 39.6173 102.482 39.3093 102.482 38.936C102.482 38.488 102.249 38.1613 101.782 37.956C101.316 37.732 100.56 37.4893 99.5143 37.228C98.3943 36.9667 97.461 36.696 96.7143 36.416C95.9676 36.1173 95.3236 35.66 94.7823 35.044C94.241 34.4093 93.9703 33.56 93.9703 32.496C93.9703 31.6 94.213 30.788 94.6983 30.06C95.2023 29.3133 95.9303 28.7253 96.8823 28.296C97.853 27.8667 99.001 27.652 100.326 27.652C102.286 27.652 103.826 28.1373 104.946 29.108C106.085 30.0787 106.738 31.3667 106.906 32.972H102.482C102.408 32.4307 102.165 32.0013 101.754 31.684C101.362 31.3667 100.84 31.208 100.186 31.208C99.6263 31.208 99.197 31.32 98.8983 31.544C98.5996 31.7493 98.4503 32.0387 98.4503 32.412C98.4503 32.86 98.6836 33.196 99.1503 33.42C99.6356 33.644 100.382 33.868 101.39 34.092C102.548 34.3907 103.49 34.6893 104.218 34.988C104.946 35.268 105.581 35.7347 106.122 36.388C106.682 37.0227 106.972 37.8813 106.99 38.964C106.99 39.8787 106.729 40.7 106.206 41.428C105.702 42.1373 104.965 42.6973 103.994 43.108C103.042 43.5187 101.932 43.724 100.662 43.724ZM124.648 35.436C124.648 35.884 124.62 36.3507 124.564 36.836H113.728C113.802 37.8067 114.11 38.5533 114.652 39.076C115.212 39.58 115.893 39.832 116.696 39.832C117.89 39.832 118.721 39.328 119.188 38.32H124.284C124.022 39.3467 123.546 40.2707 122.856 41.092C122.184 41.9133 121.334 42.5573 120.308 43.024C119.281 43.4907 118.133 43.724 116.864 43.724C115.333 43.724 113.97 43.3973 112.776 42.744C111.581 42.0907 110.648 41.1573 109.976 39.944C109.304 38.7307 108.968 37.312 108.968 35.688C108.968 34.064 109.294 32.6453 109.948 31.432C110.62 30.2187 111.553 29.2853 112.748 28.632C113.942 27.9787 115.314 27.652 116.864 27.652C118.376 27.652 119.72 27.9693 120.896 28.604C122.072 29.2387 122.986 30.144 123.64 31.32C124.312 32.496 124.648 33.868 124.648 35.436ZM119.748 34.176C119.748 33.3547 119.468 32.7013 118.908 32.216C118.348 31.7307 117.648 31.488 116.808 31.488C116.005 31.488 115.324 31.7213 114.764 32.188C114.222 32.6547 113.886 33.3173 113.756 34.176H119.748ZM134.286 43.724C132.755 43.724 131.374 43.3973 130.142 42.744C128.928 42.0907 127.967 41.1573 127.258 39.944C126.567 38.7307 126.222 37.312 126.222 35.688C126.222 34.0827 126.576 32.6733 127.285 31.46C127.995 30.228 128.966 29.2853 130.198 28.632C131.43 27.9787 132.811 27.652 134.342 27.652C135.872 27.652 137.254 27.9787 138.486 28.632C139.718 29.2853 140.688 30.228 141.398 31.46C142.107 32.6733 142.462 34.0827 142.462 35.688C142.462 37.2933 142.098 38.712 141.37 39.944C140.66 41.1573 139.68 42.0907 138.43 42.744C137.198 43.3973 135.816 43.724 134.286 43.724ZM134.286 39.58C135.2 39.58 135.975 39.244 136.61 38.572C137.263 37.9 137.59 36.9387 137.59 35.688C137.59 34.4373 137.272 33.476 136.638 32.804C136.022 32.132 135.256 31.796 134.342 31.796C133.408 31.796 132.634 32.132 132.018 32.804C131.402 33.4573 131.094 34.4187 131.094 35.688C131.094 36.9387 131.392 37.9 131.99 38.572C132.606 39.244 133.371 39.58 134.286 39.58ZM151.358 43.724C149.995 43.724 148.782 43.4907 147.718 43.024C146.654 42.5573 145.814 41.9227 145.198 41.12C144.582 40.2987 144.236 39.384 144.162 38.376H148.894C148.95 38.9173 149.202 39.356 149.65 39.692C150.098 40.028 150.648 40.196 151.302 40.196C151.899 40.196 152.356 40.084 152.674 39.86C153.01 39.6173 153.178 39.3093 153.178 38.936C153.178 38.488 152.944 38.1613 152.478 37.956C152.011 37.732 151.255 37.4893 150.21 37.228C149.09 36.9667 148.156 36.696 147.41 36.416C146.663 36.1173 146.019 35.66 145.478 35.044C144.936 34.4093 144.666 33.56 144.666 32.496C144.666 31.6 144.908 30.788 145.394 30.06C145.898 29.3133 146.626 28.7253 147.578 28.296C148.548 27.8667 149.696 27.652 151.022 27.652C152.982 27.652 154.522 28.1373 155.642 29.108C156.78 30.0787 157.434 31.3667 157.602 32.972H153.178C153.103 32.4307 152.86 32.0013 152.45 31.684C152.058 31.3667 151.535 31.208 150.882 31.208C150.322 31.208 149.892 31.32 149.594 31.544C149.295 31.7493 149.146 32.0387 149.146 32.412C149.146 32.86 149.379 33.196 149.846 33.42C150.331 33.644 151.078 33.868 152.086 34.092C153.243 34.3907 154.186 34.6893 154.914 34.988C155.642 35.268 156.276 35.7347 156.818 36.388C157.378 37.0227 157.667 37.8813 157.686 38.964C157.686 39.8787 157.424 40.7 156.902 41.428C156.398 42.1373 155.66 42.6973 154.69 43.108C153.738 43.5187 152.627 43.724 151.358 43.724Z" fill="white"/>
</svg>
