<svg width="125" height="32" viewBox="0 0 125 32" fill="none" xmlns="http://www.w3.org/2000/svg">
<g clip-path="url(#clip0_26065_13681)">
<path d="M36.1099 10.4327C35.4318 11.4638 34.9797 12.1893 34.49 12.9912C34.264 13.3731 33.7743 13.4876 33.0962 13.3731C30.3086 12.9148 27.5586 12.5712 24.6957 12.342C24.2436 12.3039 23.9799 11.7693 24.319 11.3874C25.3361 10.28 27.634 7.91245 29.5552 6.23226C29.8942 5.96496 30.3086 5.73584 30.949 5.73584C33.4352 5.81221 35.8838 5.96496 38.2571 6.19407C38.6338 6.23226 38.8975 6.57594 38.6338 6.91961C37.7297 8.10338 36.7879 9.40171 36.1099 10.4327Z" fill="#FFBB38"/>
<path d="M34.3769 1.26795C32.531 1.61163 30.6475 2.03168 28.7639 2.60447C26.9181 3.17726 24.7709 3.97917 22.8873 4.81927C22.2469 5.08657 22.4353 5.16294 23.0757 5.12476C24.7709 4.97201 27.0688 4.89564 28.877 4.93383C29.5174 4.97201 29.8941 4.7429 30.4214 4.32285C31.8153 3.25363 33.0584 2.29898 34.4522 1.45889C34.8666 1.22977 34.6029 1.22977 34.3769 1.26795Z" fill="#00538B"/>
<path d="M43.7946 0.427972C41.6473 0.351599 39.5001 0.427972 37.3152 0.695275C37.0892 0.733461 36.8632 0.733461 36.6748 0.848019C35.168 1.7263 33.7365 2.75733 32.2673 3.90291C31.8153 4.24659 31.9283 4.81938 32.418 4.85757C34.6783 4.93394 36.8632 5.08668 39.0481 5.3158C39.4624 5.35399 39.8391 5.16305 40.0275 4.93394C41.3083 3.40649 42.6644 1.9936 43.9829 0.771647C44.1713 0.580716 44.0582 0.427972 43.7946 0.427972Z" fill="#00538B"/>
<path d="M50.8765 6.72869C51.7053 5.12487 52.6847 3.75016 53.5135 2.45184C53.7018 2.18453 53.5135 1.7263 53.1745 1.64993C50.9519 1.11532 48.767 0.771645 46.5444 0.580714C46.017 0.542528 45.904 0.6189 45.5273 0.962575C44.2842 2.14635 43.0034 3.52105 41.7603 5.01031C41.5342 5.27761 41.5719 5.54491 41.7979 5.5831C44.6232 5.96496 47.3732 6.46138 50.0478 7.11055C50.2738 7.22511 50.7259 7.03417 50.8765 6.72869Z" fill="#00538B"/>
<path d="M47.2226 15.1295C47.976 12.9147 48.8048 10.8909 49.7089 8.98156C49.8972 8.5997 49.6335 8.10328 49.2192 8.02691C46.5822 7.37774 43.9076 6.88132 41.12 6.53765C40.6303 6.46128 40.4042 6.61402 40.1029 6.99588C39.1988 8.17965 38.2193 9.63073 37.5036 10.7381C36.9009 11.6928 36.4865 12.3801 36.0721 13.1057C35.8084 13.5257 35.8461 13.9458 36.4488 14.0985C38.031 14.4422 39.6132 14.7859 41.1953 15.2059C42.5138 15.5496 43.8323 15.8933 45.1507 16.3515C46.0172 16.657 46.9589 15.9314 47.2226 15.1295Z" fill="#00538B"/>
<path d="M31.3632 27.8456C33.0207 28.342 34.6782 28.8384 36.3357 29.373C38.3322 30.0222 40.2158 30.7477 42.2123 31.5878C42.5514 31.7406 43.4178 31.5497 43.5308 30.8623C44.2089 26.6236 44.9623 22.7287 45.9794 19.2537C46.2054 18.4136 45.565 17.9172 45.113 17.7645C43.6438 17.3062 42.137 16.848 40.6678 16.4661C39.048 16.0461 37.3905 15.6642 35.733 15.3205C35.3563 15.2442 34.7912 15.4351 34.4145 16.0843C32.8323 18.9482 31.4009 22.1177 30.0071 25.5926C29.7057 26.28 30.3838 27.5401 31.3632 27.8456Z" fill="#00538B"/>
<path d="M17.3122 24.6382C18.6307 24.8291 19.9869 25.0583 21.2677 25.2874C22.8122 25.5929 24.3943 25.9365 25.9388 26.242C27.0313 26.4711 28.1614 25.3256 28.4627 24.6764C29.9319 21.4306 31.401 18.4139 32.9079 15.7027C33.1716 15.2826 33.0962 14.748 32.4558 14.6716C29.4422 14.1752 26.5039 13.9079 23.4149 13.6406C22.7745 13.6024 22.2471 13.9461 21.8704 14.3661C19.9115 16.6955 18.028 19.2922 16.1821 22.1179C15.4664 23.2253 15.9938 24.4473 17.3122 24.6382Z" fill="#00538B"/>
<path d="M8.08286 14.3279C5.52125 16.5427 3.18568 19.1394 1.00078 21.8888C0.473396 22.6143 1.00078 23.1489 1.82954 23.1871C5.18222 23.3017 8.45956 23.5308 11.6992 23.9126C12.4903 23.989 13.4321 23.5308 14.0725 22.5379C16.0314 19.5976 18.0279 16.8482 20.0621 14.4043C20.5142 13.8697 20.0621 13.4114 19.5347 13.3732C16.4457 13.2587 13.2814 13.2969 10.0794 13.4496C9.1753 13.526 8.72326 13.7551 8.08286 14.3279Z" fill="#00538B"/>
<path d="M16.5588 7.68322C15.052 8.5615 12.641 10.2035 10.6445 11.6928C10.3431 11.9219 10.6068 12.1128 10.8705 12.1128C14.1102 11.9983 17.3122 11.9983 20.4389 12.1128C21.0793 12.151 21.795 11.8073 22.4731 11.12C23.3772 10.1653 25.4114 8.21783 27.1066 6.69038C27.9353 6.00303 27.5586 5.62117 26.5038 5.65935C24.5073 5.69754 22.5484 5.73572 20.5519 5.88847C19.9868 5.92666 19.7231 6.00303 19.2334 6.27033C18.4423 6.57582 17.8773 6.95768 16.5588 7.68322Z" fill="#00538B"/>
<path d="M114.954 18.6428H107.571L113.636 7.30156H113.711L114.954 18.6428ZM94.0095 30.3278H100.527C101.016 30.3278 101.242 30.2133 101.468 29.8314L104.595 24.1417H115.67L116.311 29.3732C116.386 30.0223 116.8 30.366 117.478 30.366H123.204C123.732 30.366 124.071 30.0223 123.958 29.4113L119.776 2.91015C119.626 2.10824 118.721 1.30633 117.893 1.30633H111.526C110.66 1.30633 109.68 1.72638 109.266 2.4901L93.5575 29.2968C93.2184 29.7168 93.4068 30.3278 94.0095 30.3278ZM94.0472 1.72638C92.0883 1.26815 89.376 0.848099 86.5131 0.809913C80.2221 0.733541 73.7427 3.0629 73.7427 10.5474C73.7427 18.7192 84.8556 17.0008 84.8556 21.6596C84.8556 24.6381 81.1262 25.0963 78.7529 25.0963C76.6057 25.0963 74.0818 24.5999 72.4619 23.8362C71.9346 23.607 71.5578 23.9125 71.4825 24.2562L70.3147 28.113C69.9757 29.1822 70.5031 29.5259 71.4448 29.755C73.7051 30.366 76.4174 30.8242 78.8283 30.8242C85.4583 30.8242 92.8041 28.724 92.8041 20.7049C92.8041 11.8839 81.6912 13.4113 81.6912 9.32543C81.6912 6.99607 84.1398 6.53784 87.1911 6.53784C89.6397 6.53784 91.4856 6.99607 92.8794 7.60705C93.3315 7.79798 93.5951 7.53068 93.7082 7.26337L94.9513 3.36839C95.102 2.64285 95.0266 1.91731 94.0472 1.72638ZM57.6951 30.3278H63.76C64.1367 30.3278 64.5134 30.1751 64.6265 29.7168L70.164 2.60466C70.277 2.03187 69.7497 1.30633 68.9962 1.30633H64.1367C63.2703 1.30633 62.6299 1.87913 62.4792 2.56648L56.9417 29.5259C56.8286 30.0605 57.1677 30.3278 57.6951 30.3278Z" fill="#00538B"/>
</g>
<defs>
<clipPath id="clip0_26065_13681">
<rect width="124.69" height="32" fill="white"/>
</clipPath>
</defs>
</svg>
