<svg width="125" height="32" viewBox="0 0 125 32" fill="none" xmlns="http://www.w3.org/2000/svg">
<g clip-path="url(#clip0_117_2759)">
<path d="M36.1992 10.4328C35.5194 11.4639 35.0662 12.1894 34.5753 12.9913C34.3487 13.3732 33.8578 13.4877 33.178 13.3732C30.3834 12.9149 27.6266 12.5713 24.7566 12.3421C24.3034 12.3039 24.039 11.7693 24.3789 11.3875C25.3986 10.2801 27.7022 7.91254 29.6282 6.23235C29.968 5.96505 30.3834 5.73593 31.0254 5.73593C33.5179 5.8123 35.9726 5.96505 38.3517 6.19417C38.7294 6.23235 38.9937 6.57603 38.7294 6.9197C37.823 8.10347 36.8789 9.4018 36.1992 10.4328Z" fill="#FFBB38"/>
<path d="M34.4624 1.26815C32.6119 1.61183 30.7237 2.03188 28.8355 2.60467C26.985 3.17746 24.8324 3.97937 22.9442 4.81947C22.3022 5.08677 22.4911 5.16314 23.133 5.12495C24.8324 4.97221 27.1361 4.89584 28.9488 4.93402C29.5908 4.97221 29.9684 4.74309 30.4971 4.32305C31.8944 3.25383 33.1406 2.29918 34.5379 1.45908C34.9533 1.22997 34.6889 1.22997 34.4624 1.26815Z" fill="white"/>
<path d="M43.9038 0.428063C41.7512 0.351691 39.5986 0.428063 37.4083 0.695366C37.1817 0.733552 36.9551 0.733552 36.7663 0.848111C35.2557 1.72639 33.8207 2.75742 32.3479 3.903C31.8947 4.24668 32.008 4.81947 32.4989 4.85766C34.7648 4.93403 36.9551 5.08677 39.1455 5.31589C39.5609 5.35408 39.9385 5.16315 40.1273 4.93403C41.4113 3.40658 42.7709 1.9937 44.0926 0.771739C44.2814 0.580808 44.1681 0.428063 43.9038 0.428063Z" fill="white"/>
<path d="M51.0031 6.72878C51.8339 5.12496 52.8158 3.75026 53.6466 2.45193C53.8355 2.18462 53.6466 1.72639 53.3068 1.65002C51.0787 1.11541 48.8883 0.771736 46.6602 0.580805C46.1315 0.542619 46.0182 0.618991 45.6406 0.962667C44.3944 2.14644 43.1104 3.52114 41.8641 5.0104C41.6376 5.2777 41.6753 5.54501 41.9019 5.58319C44.7342 5.96505 47.491 6.46147 50.1723 7.11064C50.3989 7.2252 50.8521 7.03427 51.0031 6.72878Z" fill="white"/>
<path d="M47.3401 15.1297C48.0954 12.9149 48.9262 10.8911 49.8325 8.98176C50.0214 8.5999 49.757 8.10348 49.3416 8.02711C46.6981 7.37794 44.0168 6.88152 41.2223 6.53785C40.7313 6.46147 40.5048 6.61422 40.2026 6.99608C39.2963 8.17985 38.3144 9.63092 37.5969 10.7383C36.9927 11.693 36.5773 12.3803 36.1619 13.1059C35.8975 13.5259 35.9353 13.946 36.5395 14.0987C38.1256 14.4424 39.7117 14.7861 41.2978 15.2061C42.6196 15.5498 43.9413 15.8935 45.2631 16.3517C46.1316 16.6572 47.0758 15.9316 47.3401 15.1297Z" fill="white"/>
<path d="M31.4407 27.8457C33.1024 28.3421 34.764 28.8386 36.4256 29.3732C38.4271 30.0223 40.3153 30.7479 42.3169 31.588C42.6567 31.7407 43.5253 31.5498 43.6386 30.8624C44.3184 26.6238 45.0736 22.7288 46.0933 19.2538C46.3199 18.4137 45.6779 17.9173 45.2247 17.7646C43.7519 17.3063 42.2413 16.8481 40.7685 16.4662C39.1446 16.0462 37.483 15.6643 35.8214 15.3207C35.4437 15.2443 34.8773 15.4352 34.4996 16.0844C32.9135 18.9483 31.4785 22.1178 30.0812 25.5927C29.7791 26.2801 30.4588 27.5402 31.4407 27.8457Z" fill="white"/>
<path d="M17.3549 24.6381C18.6767 24.829 20.0362 25.0581 21.3202 25.2873C22.8685 25.5927 24.4546 25.9364 26.003 26.2419C27.0981 26.471 28.2311 25.3254 28.5332 24.6763C30.006 21.4305 31.4788 18.4137 32.9894 15.7025C33.2537 15.2825 33.1782 14.7479 32.5362 14.6715C29.515 14.1751 26.5694 13.9078 23.4727 13.6405C22.8308 13.6023 22.3021 13.946 21.9244 14.366C19.9607 16.6954 18.0724 19.292 16.222 22.1178C15.5045 23.2252 16.0332 24.4472 17.3549 24.6381Z" fill="white"/>
<path d="M8.10272 14.3278C5.53474 16.5426 3.19335 19.1393 1.00302 21.8887C0.474318 22.6142 1.00302 23.1488 1.83384 23.187C5.19486 23.3016 8.48036 23.5307 11.7281 23.9126C12.5211 23.9889 13.4653 23.5307 14.1073 22.5379C16.071 19.5975 18.0725 16.8481 20.1118 14.4042C20.565 13.8696 20.1118 13.4114 19.5831 13.3732C16.4864 13.2586 13.3142 13.2968 10.1042 13.4495C9.19788 13.5259 8.74471 13.755 8.10272 14.3278Z" fill="white"/>
<path d="M16.5997 7.68343C15.0891 8.56172 12.6722 10.2037 10.6707 11.693C10.3686 11.9221 10.633 12.113 10.8973 12.113C14.145 11.9985 17.355 11.9985 20.4894 12.113C21.1314 12.1512 21.849 11.8075 22.5287 11.1202C23.4351 10.1655 25.4743 8.21804 27.1737 6.69059C28.0046 6.00324 27.6269 5.62138 26.5695 5.65957C24.568 5.69775 22.6043 5.73594 20.6027 5.88868C20.0363 5.92687 19.7719 6.00324 19.281 6.27054C18.4879 6.57603 17.9215 6.9579 16.5997 7.68343Z" fill="white"/>
<path d="M115.24 18.6429H107.839L113.919 7.30158H113.994L115.24 18.6429ZM94.2434 30.3278H100.777C101.268 30.3278 101.494 30.2133 101.721 29.8314L104.855 24.1417H115.958L116.6 29.3732C116.675 30.0223 117.091 30.366 117.771 30.366H123.511C124.04 30.366 124.379 30.0223 124.266 29.4114L120.074 2.91017C119.923 2.10826 119.017 1.30635 118.186 1.30635H111.804C110.935 1.30635 109.953 1.7264 109.538 2.49012L93.7903 29.2968C93.4504 29.7168 93.6392 30.3278 94.2434 30.3278ZM94.2812 1.7264C92.3175 1.26816 89.5984 0.848114 86.7283 0.809928C80.4217 0.733556 73.9262 3.06291 73.9262 10.5474C73.9262 18.7192 85.0667 17.0009 85.0667 21.6596C85.0667 24.6381 81.328 25.0963 78.9489 25.0963C76.7963 25.0963 74.2661 24.5999 72.6422 23.8362C72.1135 23.6071 71.7359 23.9126 71.6604 24.2562L70.4897 28.113C70.1498 29.1822 70.6785 29.5259 71.6226 29.755C73.8885 30.366 76.6075 30.8242 79.0244 30.8242C85.6709 30.8242 93.035 28.724 93.035 20.7049C93.035 11.8839 81.8945 13.4114 81.8945 9.32544C81.8945 6.99609 84.3492 6.53785 87.4081 6.53785C89.8628 6.53785 91.7132 6.99609 93.1105 7.60706C93.5637 7.798 93.828 7.53069 93.9413 7.26339L95.1875 3.3684C95.3386 2.64286 95.2631 1.91733 94.2812 1.7264ZM57.8386 30.3278H63.9187C64.2963 30.3278 64.6739 30.1751 64.7872 29.7169L70.3386 2.60468C70.4519 2.03189 69.9232 1.30635 69.1679 1.30635H64.2963C63.4277 1.30635 62.7857 1.87914 62.6347 2.56649L57.0833 29.5259C56.97 30.0605 57.3099 30.3278 57.8386 30.3278Z" fill="white"/>
</g>
<defs>
<clipPath id="clip0_117_2759">
<rect width="125" height="32" fill="white"/>
</clipPath>
</defs>
</svg>
